<svg class="icon icon-menu" xmlns="http://www.w3.org/2000/svg" viewBox="0 0 46 47">
					<g>
						<ellipse cx="23" cy="23.5" rx="22" ry="22.5" fill="none" stroke="red" stroke-width="2"></ellipse>
					</g>
					<path d="M32.5 29.5h-19c-.55273 0-1-.44727-1-1s.44727-1 1-1h19c.55273 0 1 .44727 1 1s-.44727 1-1 1Z" fill="currentColor"></path>
					<path d="M32.5 24.5h-19c-.55273 0-1-.44727-1-1s.44727-1 1-1h19c.55273 0 1 .44727 1 1s-.44727 1-1 1Z" fill="currentColor"></path>
					<path d="M32.5 19.5h-19c-.55273 0-1-.44727-1-1s.44727-1 1-1h19c.55273 0 1 .44727 1 1s-.44727 1-1 1Z" fill="currentColor"></path>
</svg>